<svg width="275" height="125" viewBox="0 0 275 125" fill="none" xmlns="http://www.w3.org/2000/svg">
<path d="M34.8498 36.4916C34.8498 35.9574 33.4112 34.587 32.9624 34.587H31.731V33.3676H38.9008L46.3008 52.0997H46.4504L54.2302 33.3676H60.6404V34.587H59.4896C59.0407 34.587 57.6022 35.9574 57.6022 36.4916V55.1539C57.6022 55.6881 59.0407 57.0585 59.4896 57.0585H60.6404V58.2895H51.1574V57.0585H52.3658C52.8146 57.0585 54.2532 55.6881 54.2532 55.1539V37.0258L45.265 58.6495L36.3344 36.6426V55.0726C36.3344 55.6069 37.7729 56.9772 38.2218 56.9772H39.4302V58.1966H31.731V56.9772H32.8818C33.3306 56.9772 34.7692 55.6069 34.7692 55.0726L34.8498 36.4916Z" fill="#BDBDBD"/>
<path d="M71.0094 47.6054C71.4582 45.0969 71.0094 42.8904 68.2818 42.8904C65.117 42.8904 63.5288 45.4802 63.5288 49.208C63.5288 52.9358 65.8305 55.7578 69.4212 55.7578C70.4567 55.8658 71.4999 55.6452 72.4054 55.1269C73.3109 54.6087 74.0338 53.8184 74.4734 52.8661H75.4632C74.4044 56.3501 72.2868 58.5798 68.2818 58.5798C63.8395 58.5798 60.9624 54.8055 60.9624 50.1603C60.9624 44.9808 64.3574 41.5549 68.5926 41.5549C69.647 41.5027 70.7001 41.6836 71.6781 42.0847C72.6561 42.4859 73.5355 43.0978 74.2548 43.8776L71.9531 47.5357L71.0094 47.6054Z" fill="#BDBDBD"/>
<path d="M103.233 38.3149C103.505 38.3197 103.775 38.2688 104.027 38.165C104.278 38.0612 104.506 37.9068 104.697 37.7113C104.888 37.5157 105.037 37.283 105.135 37.0274C105.234 36.7718 105.28 36.4986 105.27 36.2245C105.285 35.9506 105.243 35.6766 105.146 35.4203C105.049 35.1641 104.899 34.9314 104.707 34.7374C104.515 34.5435 104.284 34.3926 104.03 34.2946C103.776 34.1967 103.505 34.1538 103.233 34.169C102.948 34.1475 102.66 34.1857 102.39 34.2813C102.12 34.3769 101.872 34.5278 101.661 34.7246C101.451 34.9213 101.284 35.1597 101.169 35.4248C101.055 35.6899 100.996 35.9759 100.996 36.2651C100.996 36.5543 101.055 36.8404 101.169 37.1055C101.284 37.3706 101.451 37.6089 101.661 37.8057C101.872 38.0024 102.12 38.1533 102.39 38.2489C102.66 38.3445 102.948 38.3828 103.233 38.3613V38.3149Z" fill="#BDBDBD"/>
<path d="M125.882 56.9772C125.433 56.9772 124.144 55.8159 124.144 55.3049V46.3163C124.171 45.7151 124.075 45.1146 123.862 44.5525C123.649 43.9904 123.323 43.4787 122.905 43.0493C122.487 42.6199 121.986 42.2821 121.433 42.0569C120.88 41.8318 120.287 41.7241 119.69 41.7407C116.825 41.7407 115.317 43.4246 113.43 45.3989L112.82 42.0311H107.767V43.1924H108.746C109.195 43.1924 110.483 44.4118 110.483 44.8763V55.1539C110.483 55.6881 109.195 56.8262 108.746 56.8262H106.789C106.329 56.8262 105.051 55.6649 105.051 55.1539V42.0311H99.2972V43.1924H100.275C100.736 43.1924 102.013 44.4118 102.013 44.8763V55.1539C102.013 55.6881 100.736 56.8262 100.275 56.8262H98.4801C97.3753 56.3558 96.3739 55.669 95.5339 54.8055L86.9715 43.3434L92.933 36.8632C93.8511 35.9151 94.921 35.1299 96.0978 34.5406H97.2487V33.3676H88.341V34.587H89.5494C89.9983 34.587 91.4368 36.2593 91.0571 36.7122L82.253 46.6763V36.4916C82.253 35.9574 83.6801 34.587 84.1404 34.587H85.2913V33.3676H75.7622V34.587H76.9131C77.3619 34.587 78.8005 35.9574 78.8005 36.4916V55.1539C78.8005 55.6881 77.3619 57.0585 76.9131 57.0585H75.7622V58.2895H85.3488V57.0585H84.198C83.7376 57.0585 82.3106 55.6881 82.3106 55.1539V48.6041L84.7964 45.8518L93.2667 58.2895H116.146V57.0585H115.236C114.788 57.0585 113.499 55.8972 113.499 55.3746V47.0712C113.499 46.0144 116.445 43.7266 118.712 43.7266C119.067 43.7076 119.422 43.7667 119.752 43.8999C120.082 44.0331 120.379 44.2371 120.624 44.4978C120.868 44.7586 121.053 45.0698 121.166 45.4098C121.279 45.7499 121.317 46.1107 121.278 46.4673V55.3049C121.278 55.8391 119.99 56.9772 119.541 56.9772H118.632V58.1966H126.791V56.9772H125.882Z" fill="#BDBDBD"/>
<path d="M128.828 52.5642C128.828 54.0855 131.015 57.2792 134.41 57.2792C136.378 57.2792 137.506 56.594 137.506 55.0727C137.506 53.2494 135.918 52.6339 134.49 52.03C133.34 51.5655 132.453 51.1939 131.164 50.5784C129.208 49.6609 127.712 48.3719 127.712 46.1654C127.712 43.2621 129.45 41.5898 132.545 41.5898C134.283 41.5898 135.262 42.4259 136.47 42.4259C136.919 42.4259 137.218 42.3563 137.368 41.973H138.277V46.9202H137.299C137.079 45.7752 136.481 44.7389 135.604 43.9799C134.726 43.2209 133.62 42.7837 132.465 42.7395C130.578 42.7395 129.749 43.5756 129.749 44.8647C129.749 46.1538 130.727 46.7693 132.315 47.4544C133.524 47.9886 134.433 48.3719 135.768 48.9061C137.506 49.5913 139.462 50.9616 139.462 53.5513C139.462 56.594 137.345 58.4289 134.329 58.4289C132.292 58.4289 131.084 57.4301 129.726 57.4301C129.496 57.4048 129.263 57.4407 129.051 57.5345C128.839 57.6282 128.655 57.7764 128.518 57.9643H127.758V52.332H128.748L128.828 52.5642Z" fill="#BDBDBD"/>
<path d="M140.521 50.1603C140.521 45.3641 143.766 41.6246 147.852 41.7059C148.601 41.6777 149.347 41.8027 150.047 42.0735C150.746 42.3444 151.384 42.7553 151.921 43.2817C152.459 43.808 152.886 44.4388 153.175 45.136C153.465 45.8332 153.611 46.5824 153.606 47.3383L153.675 48.4996L143.03 49.3474C143.03 52.6223 145.332 55.8159 148.842 55.8159C149.867 55.9157 150.898 55.6909 151.791 55.1728C152.684 54.6546 153.395 53.8687 153.825 52.9242H154.872C153.813 56.4082 151.845 58.6379 147.967 58.6379C143.467 58.5798 140.521 54.6894 140.521 50.1603ZM151.017 47.5706C151.316 45.2479 150.936 42.995 147.771 42.995C144.607 42.995 143.168 45.7357 143.018 48.2557L151.017 47.5706Z" fill="#BDBDBD"/>
<path d="M156.529 45.0969C156.028 44.3098 155.324 43.6754 154.492 43.2621H153.813V42.0311H162.261V43.1924H161.283C160.834 43.1924 159.844 44.3537 159.844 44.946L163.55 53.6442L167.175 45.0389C167.104 44.6585 166.943 44.3008 166.707 43.9958C166.471 43.6907 166.165 43.4471 165.817 43.2853H164.827V42.0311H171.249V43.1924H170.489C170.11 43.1924 168.982 44.4118 168.602 44.946L163.17 57.3604L159.165 66.2794L157.738 65.5942L161.962 56.7566L156.529 45.0969Z" fill="#BDBDBD"/>
<path d="M79.3071 71.064C79.3603 72.0707 79.7206 73.0362 80.3387 73.8283C80.9568 74.6204 81.8024 75.2003 82.7597 75.4886C85.9245 78.9145 89.7799 82.5726 93.1174 85.6153C94.0491 84.0272 94.4974 82.1977 94.4063 80.3545C94.4063 78.0319 92.8987 76.6964 90.4819 76.6151V75.4538H99.2399V76.6151H98.2502C97.2415 77.2286 96.4703 78.1708 96.0636 79.2861C96.0427 81.7652 95.3112 84.1851 93.9575 86.254C95.5414 87.6868 97.2011 89.032 98.9292 90.2838H100.448V91.4451H97.7208C96.5833 91.4781 95.4512 91.2756 94.3943 90.8502C93.3373 90.4248 92.3779 89.7854 91.5752 88.9715C90.5038 89.9958 89.2372 90.7897 87.8523 91.3048C86.4674 91.8198 84.9932 92.0454 83.5193 91.9677C81.5278 92.0366 79.5906 91.3046 78.1339 89.9326C76.6771 88.5606 75.82 86.661 75.751 84.6514C75.7479 83.1677 76.1038 81.7056 76.7877 80.3922C77.4716 79.0788 78.4629 77.9536 79.6754 77.1144C78.419 75.6806 77.7378 73.8255 77.765 71.9117C77.765 68.3233 80.0667 66.349 83.6574 66.349C85.9591 66.349 87.1099 67.1039 88.1802 67.1039C88.7096 67.1039 89.0894 67.1039 89.3311 66.651H90.3899V72.4576H89.2735C89.2735 70.7853 86.8567 67.4291 83.5193 67.4291C80.8953 67.4871 79.3071 68.7413 79.3071 71.064ZM78.2483 82.9559C78.2483 86.5327 82.0232 89.9238 85.4987 89.9238C87.42 89.9769 89.3051 89.3891 90.8617 88.2515C87.1089 84.9653 83.5541 81.4557 80.2163 77.7415C79.5394 78.4192 79.0136 79.235 78.6742 80.1342C78.3348 81.0334 78.1896 81.9954 78.2483 82.9559Z" fill="#BDBDBD"/>
<path d="M125.652 75.4073C125.652 72.8176 122.787 67.6381 118.183 67.6381C113.959 67.6381 111.393 69.9607 110.933 75.6396C110.81 77.7446 110.837 79.8559 111.013 81.9571C111.094 84.1247 112.02 86.1725 113.589 87.6555C115.157 89.1386 117.243 89.937 119.391 89.8773C123.615 89.8773 125.733 88.054 127.321 84.7791H128.598C127.936 86.8991 126.602 88.7408 124.802 90.0207C123.001 91.3007 120.833 91.9481 118.632 91.8631C111.543 91.8631 107.008 86.0566 107.008 78.9145C107.008 71.7724 111.163 66.14 118.033 66.14C120.669 66.14 122.338 67.2084 124.225 67.2084C124.513 67.2306 124.802 67.1795 125.065 67.0598C125.329 66.9401 125.558 66.7556 125.733 66.5232H126.642V75.3608H125.652V75.4073Z" fill="#BDBDBD"/>
<path d="M130.255 83.4088C130.255 78.148 133.961 74.8731 138.185 74.8731C142.408 74.8731 146.114 78.148 146.114 83.4088C146.114 88.6695 142.408 91.9677 138.185 91.9677C137.101 91.952 136.031 91.7157 135.04 91.273C134.048 90.8302 133.156 90.1901 132.415 89.3909C131.675 88.5917 131.102 87.65 130.731 86.6221C130.36 85.5942 130.198 84.5012 130.255 83.4088ZM142.915 86.0798C143.145 84.2562 143.145 82.4104 142.915 80.5868C142.616 77.997 141.177 76.2435 138.242 76.2435C135.308 76.2435 133.938 77.997 133.558 80.5171C133.328 82.3369 133.328 84.1788 133.558 85.9985C133.938 88.507 135.296 90.3418 138.242 90.3418C141.189 90.3418 142.639 88.5883 142.938 86.0798H142.915Z" fill="#BDBDBD"/>
<path d="M172.135 88.4837C172.135 89.0179 173.343 90.1676 173.792 90.1676H174.552V91.3289H166.496V90.1676H167.393C167.854 90.1676 169.062 89.0063 169.062 88.4837V79.5996C169.116 79.2495 169.091 78.8914 168.987 78.5528C168.883 78.2143 168.703 77.9042 168.462 77.6464C168.221 77.3886 167.925 77.1898 167.596 77.0654C167.267 76.941 166.914 76.8942 166.565 76.9286C164.459 76.9286 161.892 78.9958 161.892 80.0526V88.4837C161.892 89.0179 163.043 90.1676 163.55 90.1676H164.459V91.3289H156.299V90.1676H157.174C157.623 90.1676 158.831 89.0063 158.831 88.4837V79.5996C158.874 79.2456 158.837 78.8864 158.725 78.5484C158.612 78.2104 158.426 77.902 158.18 77.646C157.934 77.3899 157.634 77.1926 157.303 77.0685C156.971 76.9444 156.617 76.8966 156.265 76.9286C154.147 76.9286 151.581 79.0654 151.581 80.2035V88.5882C151.581 89.1224 152.789 90.2605 153.249 90.2605H154.147V91.4218H145.999V90.2605H146.908C147.357 90.2605 148.565 89.0992 148.565 88.5882V78.2293C148.565 77.6951 147.357 76.557 146.908 76.557H145.999V75.3957H150.902L151.581 78.5196C153.399 76.5338 154.607 75.0357 157.404 75.0357C158.418 74.9503 159.426 75.266 160.214 75.916C161.002 76.566 161.509 77.4996 161.628 78.5196C163.584 76.5338 164.873 75.1634 167.508 75.1634C168.103 75.1425 168.695 75.2477 169.246 75.4723C169.797 75.6969 170.296 76.0359 170.709 76.4672C171.123 76.8985 171.442 77.4126 171.646 77.9762C171.85 78.5398 171.934 79.1404 171.893 79.739V88.4837H172.135Z" fill="#BDBDBD"/>
<path d="M179.247 75.3376L179.776 78.6125C180.256 77.4686 181.068 76.4986 182.106 75.8308C183.144 75.1631 184.358 74.8291 185.588 74.8731C189.513 74.8731 191.849 78.148 191.849 83.1068C191.849 88.0656 189.133 91.7818 185.289 91.7818C184.167 91.8835 183.042 91.6307 182.069 91.0586C181.095 90.4864 180.323 89.6231 179.857 88.5882V96.2761C179.857 96.8103 181.134 97.96 181.514 97.96H182.573V99.1214H174.114V97.96H175.173C175.622 97.96 176.83 96.7987 176.83 96.2761V78.2293C176.83 77.6951 175.622 76.557 175.173 76.557H174.114V75.3957L179.247 75.3376ZM179.776 81.1442V85.4643C179.776 86.6963 180.261 87.8778 181.125 88.749C181.988 89.6201 183.159 90.1095 184.38 90.1095C187.096 90.1095 188.385 88.356 188.753 85.8475C188.983 84.2572 188.983 82.6416 188.753 81.0513C188.454 78.4615 187.027 76.8589 184.76 76.8589C182.044 76.7776 180.536 78.6822 179.776 81.2023V81.1442Z" fill="#BDBDBD"/>
<path d="M226.57 90.2605C226.121 90.2605 224.844 89.0992 224.844 88.5883V79.5997C224.869 78.9988 224.772 78.3992 224.558 77.8378C224.345 77.2765 224.019 76.7654 223.601 76.3364C223.184 75.9074 222.683 75.5695 222.131 75.3438C221.578 75.118 220.986 75.0092 220.39 75.0241C217.513 75.0241 216.005 76.708 214.118 78.6822L213.566 75.4073H208.502V76.5686H209.491C209.94 76.5686 211.218 77.788 211.218 78.2525V88.4837C211.218 89.0179 209.94 90.1676 209.491 90.1676H207.524C207.075 90.1676 205.786 89.0063 205.786 88.4837V79.7506C205.786 76.557 203.219 74.9544 199.824 74.9544C198.639 74.8782 197.452 75.0631 196.345 75.4963C195.238 75.9294 194.238 76.6005 193.414 77.4628L195.52 80.7378H196.671C195.463 77.997 196.36 76.1738 199.076 76.1738C201.792 76.1738 202.851 77.4628 202.851 79.7506V81.7365L198.708 82.5726C196.406 83.0255 193.495 84.1753 193.495 87.3689C193.468 87.9302 193.554 88.4911 193.745 89.0187C193.937 89.5462 194.231 90.0298 194.611 90.441C194.99 90.8521 195.448 91.1825 195.956 91.4128C196.464 91.6431 197.012 91.7686 197.569 91.7819C199.87 91.7819 201.643 89.8773 202.932 88.205L203.311 91.4799H216.891V90.3186H215.994C215.533 90.3186 214.256 89.1573 214.256 88.6463V80.2848C214.256 79.2164 217.202 76.9286 219.458 76.9286C219.813 76.9114 220.168 76.9722 220.499 77.1067C220.829 77.2412 221.126 77.4464 221.37 77.708C221.614 77.9695 221.798 78.2814 221.911 78.622C222.024 78.9626 222.063 79.3239 222.024 79.681V88.4837C222.024 89.0179 220.747 90.1676 220.298 90.1676H219.32V91.329H227.468V90.1676H226.559L226.57 90.2605ZM202.794 86.7766C202.115 87.9379 200.492 89.587 198.869 89.587C198.529 89.595 198.191 89.5331 197.875 89.405C197.559 89.277 197.273 89.0855 197.033 88.8422C196.793 88.5988 196.604 88.3088 196.479 87.9896C196.353 87.6704 196.293 87.3289 196.303 86.9856C196.303 85.383 196.982 84.3262 198.95 83.792L202.794 82.7933V86.765V86.7766Z" fill="#BDBDBD"/>
<path d="M228.527 78.3803C228.025 77.5962 227.321 76.9657 226.49 76.557H225.811V75.3957H234.281V76.557H233.303C232.854 76.557 231.876 77.7183 231.876 78.3106L235.57 86.916L239.195 78.3106C239.132 77.927 238.975 77.5654 238.738 77.259C238.5 76.9526 238.191 76.7112 237.837 76.557H236.847V75.3957H243.269V76.557H242.509C242.141 76.557 241.002 77.7764 240.622 78.3106L235.19 90.7251L231.197 99.6324L229.746 98.9356L233.97 90.098L228.527 78.3803Z" fill="#BDBDBD"/>
</svg>
