<svg width="23" height="22" viewBox="0 0 23 22" fill="none" xmlns="http://www.w3.org/2000/svg">
<path fill-rule="evenodd" clip-rule="evenodd" d="M7.28735 1.14582C7.31463 1.14582 7.34226 1.14583 7.37029 1.14583L7.40419 1.14582C7.72634 1.1458 7.93364 1.14579 8.13631 1.16474C9.00831 1.24629 9.83547 1.5889 10.5097 2.14785C10.6665 2.27776 10.813 2.42435 11.0408 2.65216L11.5691 3.18053C12.3444 3.95576 12.6424 4.24515 12.9867 4.43669C13.1866 4.54787 13.3985 4.63568 13.6185 4.69837C13.9974 4.80636 14.4127 4.8125 15.509 4.8125H15.8983C17.0652 4.81248 18.0058 4.81246 18.75 4.90603C19.5213 5.003 20.1767 5.20993 20.7151 5.69417C20.8053 5.77527 20.8911 5.86109 20.9722 5.95126C21.4565 6.48966 21.6634 7.14502 21.7603 7.91632C21.8538 8.66055 21.8538 9.60124 21.8538 10.7681V12.885C21.8538 14.5697 21.8538 15.904 21.7135 16.9482C21.569 18.023 21.2645 18.8928 20.5786 19.5789C19.8925 20.2648 19.0227 20.5693 17.9479 20.7138C16.9037 20.8541 15.5694 20.8541 13.8847 20.8541H10.1146C8.43003 20.8541 7.0957 20.8541 6.05141 20.7138C4.9767 20.5693 4.10682 20.2648 3.42083 19.5789C2.73483 18.8928 2.43039 18.023 2.28589 16.9482C2.1455 15.904 2.14551 14.5697 2.14552 12.885V6.37059C2.14552 6.34257 2.14552 6.31493 2.14552 6.28766C2.14541 5.55808 2.14534 5.09376 2.22101 4.69271C2.55333 2.93137 3.93106 1.55364 5.69241 1.22132C6.09345 1.14565 6.55777 1.14572 7.28735 1.14582ZM7.37029 2.52083C6.53003 2.52083 6.20517 2.52383 5.94734 2.57247C4.74221 2.79985 3.79955 3.74252 3.57217 4.94765C3.52352 5.20548 3.52052 5.53034 3.52052 6.37059V12.8333C3.52052 14.5812 3.52198 15.823 3.64864 16.7651C3.77263 17.6873 4.00516 18.2186 4.3931 18.6066C4.78104 18.9945 5.31239 19.2271 6.23464 19.3511C7.17666 19.4777 8.41844 19.4791 10.1663 19.4791H13.833C15.5809 19.4791 16.8227 19.4777 17.7648 19.3511C18.687 19.2271 19.2183 18.9945 19.6063 18.6066C19.9942 18.2186 20.2268 17.6873 20.3508 16.7651C20.4774 15.823 20.4788 14.5812 20.4788 12.8333V10.8147C20.4788 9.59024 20.4776 8.73627 20.3961 8.08784C20.3167 7.45658 20.1709 7.11657 19.9498 6.87075C19.9012 6.81665 19.8497 6.76516 19.7956 6.7165C19.5498 6.4954 19.2098 6.34965 18.5785 6.27029C17.93 6.18877 17.0762 6.1875 15.8516 6.1875H15.509C15.4749 6.1875 15.4413 6.1875 15.408 6.18751C14.4474 6.18771 13.8279 6.18783 13.2416 6.0207C12.9201 5.92908 12.6103 5.80075 12.3182 5.63824C11.7854 5.34183 11.3475 4.90369 10.6683 4.22428C10.6448 4.20074 10.621 4.17692 10.5969 4.1528L10.0925 3.64839C9.83282 3.38873 9.73347 3.29036 9.63221 3.20641C9.17087 2.82398 8.60493 2.58956 8.00829 2.53376C7.87732 2.52152 7.73752 2.52083 7.37029 2.52083ZM11.9997 10.3125C12.3794 10.3125 12.6872 10.6203 12.6872 11V12.1458H13.833C14.2127 12.1458 14.5205 12.4536 14.5205 12.8333C14.5205 13.213 14.2127 13.5208 13.833 13.5208H12.6872V14.6666C12.6872 15.0463 12.3794 15.3541 11.9997 15.3541C11.62 15.3541 11.3122 15.0463 11.3122 14.6666V13.5208H10.1663C9.78666 13.5208 9.47886 13.213 9.47886 12.8333C9.47886 12.4536 9.78666 12.1458 10.1663 12.1458H11.3122V11C11.3122 10.6203 11.62 10.3125 11.9997 10.3125Z" fill="white"/>
</svg>
