<svg width="23" height="22" viewBox="0 0 23 22" fill="none" xmlns="http://www.w3.org/2000/svg">
<path fill-rule="evenodd" clip-rule="evenodd" d="M8.45802 1.46903C8.65926 1.79102 8.56137 2.21517 8.23939 2.4164L4.57271 4.70807C4.25072 4.90931 3.82657 4.81142 3.62533 4.48945C3.4241 4.16746 3.52198 3.74331 3.84396 3.54207L7.51065 1.2504C7.83263 1.04917 8.25678 1.14705 8.45802 1.46903ZM15.542 1.46903C15.7432 1.14705 16.1673 1.04917 16.4894 1.2504L20.156 3.54207C20.4781 3.74331 20.5759 4.16747 20.3747 4.48945C20.1735 4.81142 19.7493 4.90931 19.4273 4.70807L15.7606 2.4164C15.4386 2.21517 15.3408 1.79101 15.542 1.46903ZM12 4.35424C7.82335 4.35424 4.4375 7.74008 4.4375 11.9167C4.4375 16.0933 7.82335 19.4792 12 19.4792C16.1766 19.4792 19.5625 16.0933 19.5625 11.9167C19.5625 7.74008 16.1766 4.35424 12 4.35424ZM3.0625 11.9167C3.0625 6.98069 7.06395 2.97924 12 2.97924C16.9361 2.97924 20.9375 6.98069 20.9375 11.9167C20.9375 16.8528 16.9361 20.8542 12 20.8542C7.06395 20.8542 3.0625 16.8528 3.0625 11.9167ZM12 7.56257C12.3797 7.56257 12.6875 7.87038 12.6875 8.25007V11.6319L14.7778 13.7223C15.0463 13.9908 15.0463 14.426 14.7778 14.6945C14.5093 14.963 14.074 14.963 13.8056 14.6945L11.5139 12.4028C11.3849 12.274 11.3125 12.0991 11.3125 11.9167V8.25007C11.3125 7.87038 11.6203 7.56257 12 7.56257Z" fill="white"/>
</svg>
