<svg width="58" height="58" viewBox="0 0 58 58" fill="none" xmlns="http://www.w3.org/2000/svg">
<circle cx="29" cy="29" r="29" fill="#9B37FF"/>
<path d="M36.053 25.553C36.5656 25.0405 36.5656 24.2095 36.053 23.6969C35.5404 23.1844 34.7095 23.1844 34.197 23.6969L26.375 31.5188L23.8031 28.947C23.2905 28.4344 22.4595 28.4344 21.9469 28.947C21.4344 29.4595 21.4344 30.2904 21.9469 30.803L25.4469 34.303C25.9595 34.8156 26.7904 34.8156 27.303 34.303L36.053 25.553Z" fill="white"/>
<path fill-rule="evenodd" clip-rule="evenodd" d="M29 10.1875C18.6101 10.1875 10.1875 18.6101 10.1875 29C10.1875 39.3899 18.6101 47.8125 29 47.8125C39.3899 47.8125 47.8125 39.3899 47.8125 29C47.8125 18.6101 39.3899 10.1875 29 10.1875ZM12.8125 29C12.8125 20.0599 20.0599 12.8125 29 12.8125C37.9401 12.8125 45.1875 20.0599 45.1875 29C45.1875 37.9401 37.9401 45.1875 29 45.1875C20.0599 45.1875 12.8125 37.9401 12.8125 29Z" fill="white"/>
</svg>
