<svg width="58" height="58" viewBox="0 0 58 58" fill="none" xmlns="http://www.w3.org/2000/svg">
<circle cx="29" cy="29" r="29" fill="#000694"/>
<path fill-rule="evenodd" clip-rule="evenodd" d="M36.1766 20.2694C36.6836 20.7121 36.7358 21.482 36.2931 21.989L23.5253 36.6141C23.2938 36.8792 22.9591 37.0313 22.6072 37.0313C22.2552 37.0313 21.9205 36.8792 21.6891 36.6141L16.5819 30.7641C16.1392 30.257 16.1914 29.487 16.6985 29.0444C17.2056 28.6017 17.9755 28.6539 18.4181 29.1611L22.6072 33.9594L34.4569 20.386C34.8995 19.8789 35.6695 19.8267 36.1766 20.2694Z" fill="white"/>
<path fill-rule="evenodd" clip-rule="evenodd" d="M44.3411 20.4067C44.8285 20.8709 44.8473 21.6423 44.3831 22.1297L30.454 36.7547C30.2079 37.0132 29.8608 37.1507 29.5044 37.1311C29.148 37.1114 28.8182 36.9365 28.6019 36.6525L27.9059 35.7384C27.4982 35.203 27.6017 34.4383 28.1371 34.0306C28.5972 33.6802 29.2264 33.7072 29.6531 34.0613L42.618 20.4487C43.0822 19.9613 43.8536 19.9424 44.3411 20.4067Z" fill="white"/>
</svg>
