<svg width="40" height="40" viewBox="0 0 40 40" fill="none" xmlns="http://www.w3.org/2000/svg">
<g opacity="0.45">
<path d="M19.5995 7.56787C18.3491 7.56838 17.1111 7.81584 15.9566 8.29605C14.8021 8.77625 13.7538 9.47974 12.8718 10.3661C11.9899 11.2525 11.2917 12.3044 10.8173 13.4613C10.3429 14.6183 10.1017 15.8575 10.1075 17.1079C10.1075 23.6999 16.9075 29.7439 18.9995 31.3439C19.1751 31.4889 19.3958 31.5682 19.6235 31.5682C19.8513 31.5682 20.0719 31.4889 20.2475 31.3439C22.3435 29.6959 29.0875 23.6999 29.0875 17.1079C29.0933 15.8578 28.8522 14.6189 28.3781 13.4622C27.904 12.3056 27.2062 11.2539 26.3246 10.3676C25.4431 9.48121 24.3953 8.77764 23.2412 8.2972C22.0872 7.81676 20.8496 7.56891 19.5995 7.56787ZM19.5995 21.0519C18.8084 21.0519 18.035 20.8173 17.3772 20.3777C16.7194 19.9382 16.2068 19.3135 15.904 18.5826C15.6013 17.8517 15.522 17.0474 15.6764 16.2715C15.8307 15.4956 16.2117 14.7829 16.7711 14.2234C17.3305 13.664 18.0432 13.2831 18.8192 13.1287C19.5951 12.9744 20.3994 13.0536 21.1303 13.3564C21.8612 13.6591 22.4859 14.1718 22.9254 14.8296C23.3649 15.4874 23.5995 16.2607 23.5995 17.0519C23.5995 18.1127 23.1781 19.1302 22.428 19.8803C21.6778 20.6304 20.6604 21.0519 19.5995 21.0519Z" fill="white"/>
</g>
</svg>
