<svg width="23" height="22" viewBox="0 0 23 22" fill="none" xmlns="http://www.w3.org/2000/svg">
<path fill-rule="evenodd" clip-rule="evenodd" d="M9.66317 2.97913H9.75284C11.2216 2.97912 12.3851 2.97911 13.3057 3.08792C14.2507 3.19962 15.0287 3.43414 15.6786 3.96748C15.8991 4.14841 16.1012 4.35057 16.2822 4.57104C16.8155 5.22091 17.05 5.99888 17.1617 6.94394C17.1868 7.15636 17.2062 7.38172 17.221 7.6208C17.9415 7.26172 18.552 6.96667 19.0609 6.80017C19.6581 6.60477 20.2915 6.52591 20.8757 6.88696C21.4599 7.248 21.6726 7.84981 21.7648 8.4713C21.8539 9.07091 21.8538 9.86073 21.8538 10.8097V11.1903C21.8538 12.1392 21.8539 12.929 21.7648 13.5286C21.6726 14.1501 21.4599 14.7519 20.8757 15.113C20.2915 15.474 19.6581 15.3952 19.0609 15.1998C18.552 15.0332 17.9415 14.7382 17.221 14.3792C17.2062 14.6182 17.1868 14.8435 17.1617 15.056C17.05 16.001 16.8155 16.779 16.2822 17.4289C16.1012 17.6494 15.8991 17.8515 15.6786 18.0324C15.0287 18.5658 14.2507 18.8003 13.3057 18.912C12.3851 19.0208 11.2216 19.0208 9.75288 19.0208H9.66314C8.19442 19.0208 7.03085 19.0208 6.11032 18.912C5.16526 18.8003 4.38729 18.5658 3.73742 18.0324C3.51695 17.8515 3.31479 17.6494 3.13386 17.4289C2.60052 16.779 2.366 16.001 2.2543 15.056C2.14549 14.1354 2.1455 12.9719 2.14551 11.5031V10.4968C2.1455 9.02804 2.14549 7.86447 2.2543 6.94394C2.366 5.99888 2.60052 5.22091 3.13386 4.57104C3.31479 4.35057 3.51695 4.14841 3.73742 3.96748C4.38729 3.43414 5.16526 3.19962 6.11032 3.08792C7.03086 2.97911 8.19444 2.97912 9.66317 2.97913ZM15.8955 11.4583V10.5416C15.8955 9.01802 15.8944 7.93576 15.7962 7.10534C15.6999 6.2901 15.5182 5.80762 15.2193 5.44333C15.0954 5.29248 14.9571 5.15417 14.8063 5.03037C14.442 4.73141 13.9595 4.54978 13.1443 4.45341C12.3139 4.35525 11.2316 4.35413 9.70801 4.35413C8.18441 4.35413 7.10214 4.35525 6.27173 4.45341C5.45648 4.54978 4.974 4.73141 4.60971 5.03037C4.45886 5.15417 4.32055 5.29248 4.19675 5.44333C3.89779 5.80762 3.71616 6.2901 3.61979 7.10534C3.52164 7.93576 3.52051 9.01802 3.52051 10.5416V11.4583C3.52051 12.9819 3.52164 14.0642 3.61979 14.8946C3.71616 15.7098 3.89779 16.1923 4.19675 16.5566C4.32055 16.7074 4.45886 16.8457 4.60971 16.9696C4.974 17.2685 5.45648 17.4502 6.27173 17.5465C7.10214 17.6447 8.18441 17.6458 9.70801 17.6458C11.2316 17.6458 12.3139 17.6447 13.1443 17.5465C13.9595 17.4502 14.442 17.2685 14.8063 16.9696C14.9571 16.8457 15.0954 16.7074 15.2193 16.5566C15.5182 16.1923 15.6999 15.7098 15.7962 14.8946C15.8944 14.0642 15.8955 12.9819 15.8955 11.4583ZM17.2705 12.8668L17.494 12.9785C18.4064 13.4347 19.0212 13.74 19.4886 13.893C19.9463 14.0427 20.0849 13.9853 20.1528 13.9433C20.2207 13.9013 20.334 13.803 20.4048 13.3266C20.477 12.8403 20.4788 12.1539 20.4788 11.1337V10.8662C20.4788 9.84606 20.477 9.15969 20.4048 8.67327C20.334 8.19687 20.2207 8.09859 20.1528 8.0566C20.0849 8.01461 19.9463 7.9572 19.4886 8.10699C19.0212 8.25991 18.4064 8.56525 17.494 9.02146L17.2705 9.13319V10.4193C17.2705 10.445 17.2705 10.4709 17.2705 10.4968V11.5031C17.2705 11.5291 17.2705 11.5549 17.2705 11.5807V12.8668ZM9.70801 8.02079C10.0877 8.02079 10.3955 8.3286 10.3955 8.70829V10.3125H11.9997C12.3794 10.3125 12.6872 10.6203 12.6872 11C12.6872 11.3796 12.3794 11.6875 11.9997 11.6875H10.3955V13.2916C10.3955 13.6713 10.0877 13.9791 9.70801 13.9791C9.32831 13.9791 9.02051 13.6713 9.02051 13.2916V11.6875H7.41634C7.03665 11.6875 6.72884 11.3796 6.72884 11C6.72884 10.6203 7.03665 10.3125 7.41634 10.3125H9.02051V8.70829C9.02051 8.3286 9.32831 8.02079 9.70801 8.02079Z" fill="white"/>
</svg>
