<svg width="44" height="44" viewBox="0 0 44 44" fill="none" xmlns="http://www.w3.org/2000/svg">
<circle cx="22" cy="22" r="22" fill="#000694"/>
<path d="M23.451 11.7074C24.5764 11.6902 25.6936 11.6991 26.8101 11.6902C26.8472 13.0865 27.4137 14.3432 28.315 15.2741L28.3137 15.2727C29.2837 16.1466 30.546 16.7131 31.9375 16.8093L31.9567 16.8107V20.2729C30.6422 20.2399 29.4061 19.9367 28.2917 19.4156L28.348 19.439C27.809 19.1798 27.3532 18.9137 26.9201 18.6167L26.9558 18.6401C26.9476 21.1488 26.9641 23.6575 26.9387 26.1572C26.8678 27.4312 26.4443 28.5931 25.7651 29.5631L25.7788 29.5418C24.6431 31.1684 22.8033 32.2361 20.7113 32.2994H20.7017C20.6171 32.3035 20.5174 32.3056 20.417 32.3056C19.2277 32.3056 18.116 31.9742 17.1686 31.3987L17.1961 31.4146C15.4718 30.3771 14.2825 28.602 14.0625 26.5374L14.0597 26.5092C14.0425 26.0796 14.0343 25.6499 14.0515 25.2291C14.3883 21.9436 17.1411 19.4019 20.4872 19.4019C20.8632 19.4019 21.2317 19.4342 21.5899 19.4954L21.5514 19.4899C21.5686 20.7611 21.517 22.0329 21.517 23.3041C21.2262 23.1989 20.8907 23.1377 20.5408 23.1377C19.2565 23.1377 18.1641 23.9586 17.7598 25.1047L17.7537 25.1253C17.6622 25.4189 17.6093 25.7564 17.6093 26.1057C17.6093 26.2473 17.6182 26.3876 17.6347 26.5251L17.6333 26.5086C17.8616 27.9152 19.0675 28.9767 20.5215 28.9767C20.5635 28.9767 20.6047 28.976 20.646 28.9739H20.6398C21.6456 28.9437 22.5187 28.4026 23.0123 27.6031L23.0192 27.5907C23.2028 27.3349 23.3286 27.0256 23.3705 26.6894L23.3712 26.6797C23.4572 25.1418 23.4228 23.6128 23.431 22.0749C23.4393 18.6126 23.4228 15.1586 23.4482 11.7053L23.451 11.7074Z" fill="white"/>
</svg>
